<?xml version="1.0" standalone="no"?>
<!DOCTYPE svg PUBLIC "-//W3C//DTD SVG 20010904//EN"
 "http://www.w3.org/TR/2001/REC-SVG-20010904/DTD/svg10.dtd">
<svg version="1.0" xmlns="http://www.w3.org/2000/svg"
 width="325.000000pt" height="325.000000pt" viewBox="0 0 325.000000 325.000000"
 preserveAspectRatio="xMidYMid meet">
<metadata>
Created by potrace 1.11, written by Peter Selinger 2001-2013
</metadata>
<g transform="translate(0.000000,325.000000) scale(0.100000,-0.100000)"
fill="#000000" stroke="none">
<path d="M1463 3235 c-406 -71 -722 -372 -813 -772 -19 -85 -22 -133 -18 -323
1 -39 40 -196 64 -257 114 -287 361 -513 658 -598 71 -21 72 -21 166 -31 414
-43 788 156 993 528 31 56 83 199 91 252 l6 38 -197 -4 c-251 -6 -277 -14
-328 -98 -45 -74 -140 -162 -216 -200 -235 -119 -524 -49 -672 163 -57 81 -84
148 -99 241 -37 240 108 486 340 576 187 72 411 27 561 -114 35 -33 111 -138
111 -155 0 -10 75 -38 127 -47 24 -5 266 -8 361 -5 l32 1 0 405 c0 223 -3 406
-7 406 -5 1 -87 3 -184 4 l-176 3 -39 -79 c-21 -44 -40 -79 -43 -79 -3 0 -41
18 -84 41 -84 43 -200 87 -257 95 -19 3 -42 8 -50 11 -31 11 -258 10 -327 -2z"/>
<path d="M1544 2596 c-47 -11 -116 -47 -154 -78 -27 -23 -76 -92 -90 -128 -20
-50 -22 -57 -25 -133 -7 -145 69 -269 205 -334 46 -23 69 -27 145 -27 109 -1
144 13 266 105 103 79 214 135 305 154 46 10 131 15 252 15 l182 0 0 79 0 78
-192 1 c-218 0 -275 10 -394 68 -38 20 -106 62 -150 96 -43 33 -102 71 -130
84 -61 29 -149 37 -220 20z"/>
<path d="M645 1002 c-16 -4 -17 -12 -12 -90 6 -87 32 -203 62 -277 83 -208
256 -404 446 -509 186 -102 431 -147 625 -116 38 7 83 14 99 17 40 6 190 65
240 93 140 79 277 203 356 325 105 160 161 334 163 504 l1 53 -170 0 c-317 -1
-295 1 -292 -24 6 -37 -22 -148 -54 -214 -35 -75 -119 -169 -189 -214 -72 -46
-176 -79 -263 -84 -282 -14 -530 195 -562 474 -3 30 -7 56 -9 57 -4 4 -421 8
-441 5z"/>
</g>
</svg>
